<svg width="24" height="25" viewBox="0 0 24 25" fill="none" xmlns="http://www.w3.org/2000/svg">
<g clip-path="url(#clip0_3_11)">
<path d="M22.5549 14.6619L20.6549 7.82593C20.098 5.82327 18.8877 4.06422 17.2163 2.8284C15.5449 1.59259 13.5083 0.950921 11.4304 1.0054C9.35244 1.05988 7.35233 1.80738 5.74798 3.12908C4.14364 4.45078 3.02713 6.27084 2.57592 8.29993L1.10492 14.9149C0.942436 15.6459 0.946193 16.404 1.11591 17.1333C1.28563 17.8625 1.61699 18.5444 2.0855 19.1285C2.55402 19.7126 3.14774 20.184 3.82283 20.5079C4.49792 20.8318 5.23714 21 5.98592 20.9999H7.09992C7.32944 22.1302 7.94265 23.1464 8.83566 23.8763C9.72868 24.6062 10.8466 25.0049 11.9999 25.0049C13.1533 25.0049 14.2712 24.6062 15.1642 23.8763C16.0572 23.1464 16.6704 22.1302 16.8999 20.9999H17.7379C18.5087 21 19.2691 20.8218 19.9597 20.4794C20.6502 20.1369 21.2523 19.6394 21.7187 19.0258C22.1852 18.4122 22.5035 17.699 22.6487 16.942C22.794 16.185 22.7622 15.4046 22.5559 14.6619H22.5549ZM11.9999 22.9999C11.3817 22.9974 10.7793 22.8039 10.2752 22.4458C9.77115 22.0878 9.39 21.5828 9.18392 20.9999H14.8159C14.6098 21.5828 14.2287 22.0878 13.7246 22.4458C13.2206 22.8039 12.6182 22.9974 11.9999 22.9999V22.9999ZM20.1259 17.8149C19.8473 18.1846 19.4862 18.4842 19.0715 18.6899C18.6568 18.8956 18.1998 19.0018 17.7369 18.9999H5.98592C5.53671 18.9999 5.09324 18.8989 4.68826 18.7045C4.28328 18.5101 3.92713 18.2273 3.64608 17.8768C3.36504 17.5264 3.16628 17.1173 3.06448 16.6798C2.96268 16.2423 2.96044 15.7874 3.05792 15.3489L4.52792 8.73293C4.88227 7.13914 5.75923 5.70954 7.01938 4.67138C8.27953 3.63323 9.85055 3.04611 11.4827 3.00335C13.1148 2.96059 14.7144 3.46465 16.0272 4.4354C17.34 5.40615 18.2906 6.78788 18.7279 8.36093L20.6279 15.1969C20.7535 15.6423 20.7735 16.1108 20.6863 16.5653C20.5992 17.0197 20.4073 17.4476 20.1259 17.8149V17.8149Z" fill="white"/>
</g>
<circle cx="19" cy="5" r="5" fill="#EA580C"/>
<defs>
<clipPath id="clip0_3_11">
<rect width="24" height="24" fill="white" transform="translate(0 1)"/>
</clipPath>
</defs>
</svg>
