<svg xmlns="http://www.w3.org/2000/svg" width="704" height="704" viewBox="0 0 704 704" version="1.1"><path d="M 572.500 135.051 C 546.344 144.127, 487.223 162.206, 447 173.429 C 437.925 175.961, 429.150 178.445, 427.500 178.949 C 425.850 179.453, 418.425 181.503, 411 183.505 C 403.575 185.508, 393.601 188.235, 388.837 189.566 C 384.072 190.897, 363.313 196.264, 342.707 201.494 C 295.391 213.501, 282.713 217.387, 260.820 226.593 C 232.466 238.516, 199.380 257.307, 171.500 277.322 C 159.819 285.708, 143.938 297.938, 142 300.043 C 141.725 300.341, 138.800 302.751, 135.500 305.398 C 119.307 318.385, 83.511 353.710, 68 372.011 C 64.975 375.580, 61.958 379.074, 61.297 379.775 C 60.635 380.476, 58.385 383.176, 56.297 385.775 C 54.208 388.374, 52.253 390.725, 51.952 391 C 51.347 391.553, 38.244 408.615, 36.594 411 C 36.023 411.825, 38.694 409.574, 42.528 405.998 C 58.409 391.187, 83.140 371.935, 98.342 362.550 C 100.079 361.478, 105.469 357.990, 110.321 354.800 C 115.172 351.610, 119.366 349, 119.641 349 C 119.915 349, 122.102 347.650, 124.500 346 C 126.898 344.350, 129.097 343, 129.386 343 C 129.675 343, 132.294 341.584, 135.206 339.853 C 140.904 336.467, 146.890 333.114, 159.500 326.249 C 171.108 319.929, 219.280 296.288, 232 290.669 C 302.866 259.364, 331.776 249.433, 408.495 230.044 C 459.447 217.166, 527.892 201.531, 548.886 197.973 C 551.849 197.471, 554.388 196.934, 554.528 196.780 C 556.374 194.750, 588 132.193, 588 130.571 C 588 129.702, 587.510 129.843, 572.500 135.051 M 332.776 562.733 C 335.128 562.945, 338.728 562.942, 340.776 562.727 C 342.824 562.512, 340.900 562.339, 336.500 562.343 C 332.100 562.346, 330.424 562.522, 332.776 562.733" stroke="none" fill="#e7ad4c" fill-rule="evenodd"/><path d="M 408 278.587 C 401.738 278.990, 387.681 280.763, 381 281.992 C 371.690 283.705, 364.379 285.179, 360.750 286.075 C 353.217 287.933, 348.455 289.245, 346.500 290 C 345.400 290.425, 342.475 291.325, 340 292 C 335.371 293.263, 331.804 294.570, 328.764 296.117 C 327.809 296.603, 326.340 297, 325.500 297 C 324.660 297, 323.191 297.397, 322.236 297.883 C 321.281 298.369, 319.150 299.322, 317.500 300 C 315.850 300.678, 313.719 301.631, 312.764 302.117 C 311.809 302.603, 310.346 303, 309.514 303 C 308.681 303, 308 303.450, 308 304 C 308 304.550, 307.319 305, 306.486 305 C 305.654 305, 304.191 305.410, 303.236 305.911 C 302.281 306.411, 296.325 309.344, 290 312.428 C 278.356 318.105, 272.909 321.025, 272 322.080 C 271.725 322.399, 270.038 323.297, 268.250 324.074 C 266.462 324.852, 265 325.828, 265 326.244 C 265 326.660, 264.325 327, 263.500 327 C 262.675 327, 262 327.340, 262 327.756 C 262 328.172, 260.538 329.159, 258.750 329.950 C 256.962 330.741, 254.705 332.129, 253.733 333.034 C 252.761 333.940, 250.736 335.315, 249.233 336.090 C 247.730 336.866, 245.628 338.288, 244.561 339.250 C 243.495 340.212, 242.033 341, 241.311 341 C 240.590 341, 239.998 341.337, 239.995 341.750 C 239.992 342.163, 237.519 344.075, 234.500 346 C 231.481 347.925, 229.008 349.837, 229.005 350.250 C 229.002 350.663, 228.424 351, 227.721 351 C 227.017 351, 225.793 351.900, 225 353 C 224.207 354.100, 223.082 355, 222.500 355 C 221.918 355, 220.793 355.900, 220 357 C 219.207 358.100, 218.216 359, 217.797 359 C 216.913 359, 213.815 361.706, 203.200 371.750 C 198.986 375.738, 195.853 379, 196.239 379 C 197.132 379, 204.336 374.982, 205 374.114 C 205.445 373.531, 211.641 370.593, 227.500 363.443 C 230.250 362.203, 235.875 360.140, 240 358.859 C 244.125 357.578, 247.766 356.162, 248.092 355.712 C 248.417 355.263, 249.092 354.971, 249.592 355.066 C 251.926 355.506, 255.062 354.909, 254.573 354.118 C 254.273 353.632, 255.890 353.210, 258.167 353.178 C 260.444 353.147, 262.608 352.635, 262.975 352.041 C 263.342 351.446, 264.511 351.040, 265.571 351.139 C 270.034 351.551, 274.089 350.952, 273.482 349.970 C 273.082 349.324, 274.273 348.991, 276.673 349.077 C 278.778 349.153, 291.863 349.214, 305.750 349.214 C 332.128 349.214, 335.531 349.320, 338 350.219 C 338.825 350.520, 342.650 351.318, 346.500 351.994 C 366.790 355.553, 392.101 364.150, 414.264 375.011 C 424.355 379.956, 432.836 384.566, 434.196 385.845 C 435.572 387.140, 419.932 439.159, 414.456 451.500 C 413.724 453.150, 411.931 457.425, 410.471 461 C 409.012 464.575, 406.248 470.875, 404.330 475 C 402.411 479.125, 400.764 482.950, 400.670 483.500 C 400.577 484.050, 400.226 484.725, 399.891 485 C 399.556 485.275, 398.196 487.525, 396.868 490 C 394.051 495.249, 392.551 497.680, 385.452 508.505 C 374.091 525.827, 360.707 538.388, 346.761 544.816 C 342.058 546.983, 341.569 547, 283.011 547 C 244.337 547, 224 547.345, 224 548 C 224 548.550, 221.637 549.053, 218.750 549.118 C 214.262 549.219, 213.936 549.347, 216.500 550 C 218.150 550.420, 221.548 550.817, 224.050 550.882 C 226.553 550.947, 229.028 551.410, 229.550 551.912 C 230.072 552.414, 232.975 553.070, 236 553.371 C 239.025 553.671, 244.425 554.342, 248 554.860 C 254.629 555.822, 267.764 557.383, 283 559.019 C 313.184 562.261, 363.653 562.795, 377 560.015 C 380.025 559.385, 384.975 558.382, 388 557.786 C 392.885 556.823, 397.127 555.788, 407.500 553.029 C 410.725 552.171, 413.322 551.298, 416.500 550.005 C 417.600 549.557, 422.325 547.708, 427 545.895 C 436.629 542.163, 452.442 534.166, 458.680 529.875 C 460.979 528.294, 463.342 527, 463.930 527 C 464.519 527, 465 526.647, 465 526.216 C 465 525.784, 466.300 524.663, 467.888 523.725 C 475.804 519.049, 496.303 500.679, 505.521 490 C 531.113 460.354, 548.663 422.726, 555.427 383 C 557.760 369.300, 559.247 347.282, 558.568 336.500 C 557.684 322.452, 555.959 307.792, 554.973 305.950 C 553.517 303.230, 521.233 291.545, 503 287.141 C 476.139 280.651, 462.937 278.961, 436 278.564 C 423.625 278.382, 411.025 278.392, 408 278.587 M 234.768 419.725 C 236.565 419.947, 239.265 419.943, 240.768 419.715 C 242.271 419.486, 240.800 419.304, 237.500 419.310 C 234.200 419.315, 232.971 419.502, 234.768 419.725 M 274.750 419.737 C 277.637 419.939, 282.363 419.939, 285.250 419.737 C 288.137 419.535, 285.775 419.370, 280 419.370 C 274.225 419.370, 271.863 419.535, 274.750 419.737 M 338.300 432 C 338.300 435.025, 338.487 436.262, 338.716 434.750 C 338.945 433.238, 338.945 430.762, 338.716 429.250 C 338.487 427.738, 338.300 428.975, 338.300 432 M 234.287 454.740 C 237.469 454.939, 242.419 454.937, 245.287 454.736 C 248.154 454.535, 245.550 454.372, 239.500 454.374 C 233.450 454.376, 231.104 454.541, 234.287 454.740 M 158.750 547.748 C 166.587 547.917, 179.412 547.917, 187.250 547.748 C 195.087 547.579, 188.675 547.441, 173 547.441 C 157.325 547.441, 150.912 547.579, 158.750 547.748" stroke="none" fill="#d65f00" fill-rule="evenodd"/><path d="M 285.500 349.119 C 274.301 349.985, 261.525 352.512, 247.500 356.634 C 225.865 362.992, 206.848 372.078, 185.500 386.255 C 152.006 408.499, 120.633 440.648, 94.994 479 L 88.643 488.500 97.051 480.613 C 105.179 472.987, 112.638 467.287, 113.420 468.104 C 113.628 468.322, 113.185 471.650, 112.436 475.500 C 111.687 479.350, 111.057 484.020, 111.037 485.878 C 111.002 489.116, 111.214 488.929, 116.140 481.378 C 131.347 458.068, 151.513 433.993, 168.897 418.393 C 174.065 413.755, 178.492 410.158, 178.733 410.400 C 178.975 410.641, 178.402 414.299, 177.461 418.529 C 176.125 424.537, 175.861 429.202, 176.255 439.859 C 176.842 455.746, 178.617 462.533, 185.838 476.500 C 189.642 483.859, 192.314 487.323, 200.495 495.500 C 207.435 502.436, 212.798 506.785, 218 509.694 C 260.853 533.660, 313.601 517.433, 335.769 473.465 C 342.131 460.846, 343.500 454.210, 343.498 436 C 343.496 419.923, 343.411 419.256, 340.197 410 C 334.484 393.550, 325.006 379.960, 312.647 370.500 C 309.054 367.750, 306.089 365.163, 306.058 364.750 C 305.979 363.729, 310.783 363.820, 321.500 365.044 C 345.074 367.735, 370.176 375.257, 391.905 386.142 C 411.265 395.840, 409.787 393.904, 407.659 406.769 C 398.041 464.924, 374.130 514.252, 346.831 532.260 L 341.161 536 241.771 536 C 144.095 536, 142.235 535.964, 133.940 533.897 C 129.298 532.740, 122.704 530.326, 119.287 528.532 C 115.040 526.302, 113.353 525.781, 113.955 526.885 C 115.267 529.290, 121.030 534.520, 124.944 536.857 C 127.789 538.556, 128.088 539.029, 126.662 539.576 C 124.900 540.252, 109.706 538.637, 102.528 537.010 C 100.344 536.515, 98.362 536.305, 98.124 536.542 C 97.422 537.244, 108.363 541.781, 114.669 543.403 C 128.772 547.031, 133.044 547.158, 238.228 547.094 L 341.956 547.031 346.728 544.831 C 360.877 538.308, 374.109 525.826, 385.764 508.005 C 388.823 503.327, 392.077 498.375, 392.994 497 C 395.490 493.261, 406.181 471.495, 409.448 463.500 C 411.022 459.650, 413.088 454.700, 414.040 452.500 C 420.140 438.405, 435.626 387.191, 434.196 385.845 C 432.836 384.566, 424.355 379.956, 414.264 375.011 C 388.330 362.303, 361.603 353.863, 335 349.981 C 326.345 348.718, 297.231 348.211, 285.500 349.119 M 274.500 366.094 C 245.246 371.184, 221.531 380.462, 198.500 395.828 C 189.174 402.051, 188.354 402.870, 186.327 408 C 178.889 426.830, 179.529 449.978, 188.004 468.670 C 198.657 492.165, 219.376 508.667, 244.799 513.908 C 254.272 515.860, 270.480 515.285, 280.007 512.658 C 308.206 504.882, 328.317 484.731, 336.552 456 C 339.383 446.125, 339.223 426.064, 336.231 415.701 C 330.610 396.233, 319.440 381.122, 302.492 370.058 C 294.823 365.052, 294.665 365.001, 287.122 365.112 C 282.930 365.173, 277.250 365.615, 274.500 366.094 M 259.651 384 C 259.328 384.825, 257.092 393.150, 254.680 402.500 L 250.296 419.500 238.638 419.708 C 225.030 419.950, 221.154 421.299, 217.290 427.138 C 211.944 435.216, 213.866 445.717, 221.657 451 C 225.007 453.271, 226.470 453.530, 237.647 453.831 L 249.951 454.162 250.802 457.331 C 251.270 459.074, 253.396 467.363, 255.526 475.751 C 257.656 484.139, 259.685 490.664, 260.035 490.251 C 260.777 489.375, 269.037 458.101, 269.015 456.250 C 269.004 455.336, 271.570 455, 278.557 455 C 283.814 455, 290.165 454.484, 292.671 453.853 C 304.973 450.755, 309.917 435.669, 301.698 426.309 C 297.060 421.026, 293.701 420, 281.051 420 L 270.038 420 269.359 417.250 C 264.884 399.127, 260.118 382.803, 259.651 384" stroke="none" fill="#1c1c1a" fill-rule="evenodd"/><path d="M 281 365.689 C 271.914 366.645, 254.873 370.419, 244.720 373.723 C 231.738 377.948, 209.094 389.054, 197.261 397 C 190.444 401.578, 188.730 403.285, 187.037 407.182 C 181.029 421.010, 179.943 441.979, 184.440 457.307 C 187.474 467.646, 190.635 474.245, 196.508 482.500 C 206.712 496.843, 222.621 507.613, 241 512.621 C 250.896 515.317, 270.086 515.095, 280.500 512.164 C 302.180 506.062, 320.402 491.113, 330.069 471.500 C 335.846 459.779, 338.076 449.866, 338.057 436 C 338.037 421.737, 335.720 412.170, 329.220 399.511 C 325.502 392.269, 322.817 388.733, 315.547 381.500 C 310.482 376.461, 303.649 370.849, 300.023 368.750 C 293.416 364.925, 291.374 364.596, 281 365.689 M 263 378.037 C 261.625 378.490, 258.475 379.394, 256 380.046 C 250.783 381.421, 249.983 381.661, 236 386.060 C 230.225 387.877, 224.571 390.182, 223.436 391.182 C 222.300 392.182, 220.886 393, 220.294 393 C 219.701 393, 216.925 395.060, 214.124 397.578 C 208.339 402.780, 202.784 412.946, 200.500 422.514 C 197.575 434.768, 199.037 450.154, 204.097 460.353 C 205.693 463.572, 207 466.606, 207 467.095 C 207 469.288, 220.986 483.669, 227.180 487.845 C 229.754 489.580, 232.567 491, 233.430 491 C 234.294 491, 235 491.352, 235 491.782 C 235 492.212, 237.137 493.129, 239.750 493.821 C 242.363 494.513, 246.025 495.563, 247.889 496.155 C 252.095 497.489, 272.029 497.371, 273.397 496.003 C 273.949 495.451, 275.547 494.998, 276.950 494.996 C 278.352 494.994, 280.973 494.094, 282.774 492.996 C 284.575 491.898, 286.712 491, 287.524 491 C 288.336 491, 289 490.550, 289 490 C 289 489.450, 289.590 489, 290.311 489 C 291.033 489, 292.589 488.100, 293.770 487 C 294.950 485.900, 296.274 485, 296.711 485 C 297.149 485, 298.781 483.650, 300.338 482 C 301.895 480.350, 303.469 478.997, 303.835 478.993 C 304.201 478.989, 305.619 477.302, 306.986 475.243 C 308.354 473.184, 310.266 470.772, 311.236 469.883 C 312.206 468.993, 313 467.793, 313 467.215 C 313 466.637, 314.080 463.990, 315.401 461.332 C 322.198 447.650, 322.739 433.594, 317.171 415.389 C 316.009 411.589, 311.457 403.316, 309.001 400.539 C 302.413 393.092, 296.498 387, 295.855 387 C 295.440 387, 293.100 385.650, 290.655 384 C 288.210 382.350, 285.707 381, 285.091 381 C 283.998 381, 282.799 380.501, 278.264 378.156 C 275.747 376.855, 266.798 376.785, 263 378.037 M 306.116 437 C 306.077 440.219, 306.325 441.049, 306.988 439.915 C 307.535 438.980, 307.557 437.133, 307.044 435.415 C 306.239 432.724, 306.168 432.846, 306.116 437 M 207.260 548.594 C 207.980 549.313, 223.093 549.241, 223.819 548.514 C 224.102 548.231, 220.358 548, 215.500 548 C 210.642 548, 206.934 548.267, 207.260 548.594 M 345.750 562.706 C 346.988 562.944, 349.012 562.944, 350.250 562.706 C 351.488 562.467, 350.475 562.272, 348 562.272 C 345.525 562.272, 344.512 562.467, 345.750 562.706" stroke="none" fill="#e08f19" fill-rule="evenodd"/><path d="M 263 378.037 C 261.625 378.490, 258.475 379.394, 256 380.046 C 250.783 381.421, 249.983 381.661, 236 386.060 C 230.225 387.877, 224.571 390.182, 223.436 391.182 C 222.300 392.182, 220.886 393, 220.294 393 C 219.701 393, 216.925 395.060, 214.124 397.578 C 208.339 402.780, 202.784 412.946, 200.500 422.514 C 197.575 434.768, 199.037 450.154, 204.097 460.353 C 205.693 463.572, 207 466.606, 207 467.095 C 207 469.288, 220.986 483.669, 227.180 487.845 C 229.754 489.580, 232.567 491, 233.430 491 C 234.294 491, 235 491.352, 235 491.782 C 235 492.212, 237.137 493.129, 239.750 493.821 C 242.363 494.513, 246.025 495.563, 247.889 496.155 C 252.095 497.489, 272.029 497.371, 273.397 496.003 C 273.949 495.451, 275.547 494.998, 276.950 494.996 C 278.352 494.994, 280.973 494.094, 282.774 492.996 C 284.575 491.898, 286.712 491, 287.524 491 C 288.336 491, 289 490.550, 289 490 C 289 489.450, 289.590 489, 290.311 489 C 291.033 489, 292.589 488.100, 293.770 487 C 294.950 485.900, 296.274 485, 296.711 485 C 297.149 485, 298.781 483.650, 300.338 482 C 301.895 480.350, 303.469 478.997, 303.835 478.993 C 304.201 478.989, 305.619 477.302, 306.986 475.243 C 308.354 473.184, 310.266 470.772, 311.236 469.883 C 312.206 468.993, 313 467.793, 313 467.215 C 313 466.637, 314.080 463.990, 315.401 461.332 C 322.198 447.650, 322.739 433.594, 317.171 415.389 C 316.009 411.589, 311.457 403.316, 309.001 400.539 C 302.413 393.092, 296.498 387, 295.855 387 C 295.440 387, 293.100 385.650, 290.655 384 C 288.210 382.350, 285.707 381, 285.091 381 C 283.998 381, 282.799 380.501, 278.264 378.156 C 275.747 376.855, 266.798 376.785, 263 378.037 M 257.141 389.750 C 255.865 394.563, 254.567 399.175, 254.257 400 C 253.946 400.825, 253.534 402.400, 253.341 403.500 C 253.147 404.600, 252.198 408.425, 251.231 412 L 249.473 418.500 237.987 418.771 C 225.052 419.077, 221.384 420.254, 217.683 425.286 C 213.411 431.096, 210.999 441.833, 213.760 442.753 C 214.442 442.981, 215 443.748, 215 444.458 C 215 446.180, 220.866 452.253, 224 453.776 C 225.398 454.456, 231.551 455.103, 237.964 455.246 L 249.429 455.500 250.286 459 C 250.757 460.925, 251.553 464.075, 252.054 466 C 252.555 467.925, 253.086 470.625, 253.233 472 C 253.380 473.375, 253.865 474.768, 254.310 475.096 C 254.756 475.424, 255.206 477.335, 255.310 479.342 C 255.415 481.349, 255.838 482.993, 256.250 482.996 C 256.663 482.998, 257.003 483.563, 257.006 484.250 C 257.016 486.575, 259.089 493, 259.829 493 C 260.233 493, 261.136 490.863, 261.836 488.250 C 262.536 485.637, 263.586 481.700, 264.169 479.500 C 264.751 477.300, 265.579 474.600, 266.008 473.500 C 266.438 472.400, 267.585 467.788, 268.558 463.250 L 270.327 455 283.164 455 C 291.055 455, 296 454.615, 296 454 C 296 453.450, 296.635 453, 297.411 453 C 299.356 453, 303.907 447.383, 306.093 442.283 C 307.771 438.369, 307.793 437.665, 306.384 432.923 C 304.898 427.918, 300.915 422.962, 296.200 420.250 C 294.806 419.448, 289.894 419, 282.489 419 L 270.950 419 269.906 416.253 C 269.331 414.742, 269.053 412.505, 269.286 411.283 C 269.520 410.061, 269.349 409.284, 268.906 409.558 C 268.463 409.832, 267.819 408.356, 267.475 406.278 C 267.130 404.200, 266.437 401.375, 265.933 400 C 265.429 398.625, 264.868 396.600, 264.684 395.500 C 264.001 391.396, 260.713 381, 260.099 381 C 259.748 381, 258.417 384.938, 257.141 389.750" stroke="none" fill="#f19413" fill-rule="evenodd"/><path d="M 285.500 349.119 C 274.301 349.985, 261.525 352.512, 247.500 356.634 C 225.865 362.992, 206.848 372.078, 185.500 386.255 C 152.006 408.499, 120.633 440.648, 94.994 479 L 88.643 488.500 97.051 480.613 C 105.179 472.987, 112.638 467.287, 113.420 468.104 C 113.628 468.322, 113.185 471.650, 112.436 475.500 C 111.687 479.350, 111.057 484.020, 111.037 485.878 C 111.002 489.116, 111.214 488.929, 116.140 481.378 C 131.347 458.068, 151.513 433.993, 168.897 418.393 C 174.065 413.755, 178.492 410.158, 178.733 410.400 C 178.975 410.641, 178.402 414.299, 177.461 418.529 C 176.125 424.537, 175.861 429.202, 176.255 439.859 C 176.842 455.746, 178.617 462.533, 185.838 476.500 C 189.642 483.859, 192.314 487.323, 200.495 495.500 C 207.435 502.436, 212.798 506.785, 218 509.694 C 260.853 533.660, 313.601 517.433, 335.769 473.465 C 342.131 460.846, 343.500 454.210, 343.498 436 C 343.496 419.923, 343.411 419.256, 340.197 410 C 334.484 393.550, 325.006 379.960, 312.647 370.500 C 309.054 367.750, 306.089 365.163, 306.058 364.750 C 305.979 363.729, 310.783 363.820, 321.500 365.044 C 345.074 367.735, 370.176 375.257, 391.905 386.142 C 411.265 395.840, 409.787 393.904, 407.659 406.769 C 398.041 464.924, 374.130 514.252, 346.831 532.260 L 341.161 536 241.771 536 C 144.095 536, 142.235 535.964, 133.940 533.897 C 129.298 532.740, 122.704 530.326, 119.287 528.532 C 115.040 526.302, 113.353 525.781, 113.955 526.885 C 115.267 529.290, 121.030 534.520, 124.944 536.857 C 127.789 538.556, 128.088 539.029, 126.662 539.576 C 124.900 540.252, 109.706 538.637, 102.528 537.010 C 100.344 536.515, 98.362 536.305, 98.124 536.542 C 97.422 537.244, 108.363 541.781, 114.669 543.403 C 128.772 547.031, 133.044 547.158, 238.228 547.094 L 341.956 547.031 346.728 544.831 C 360.877 538.308, 374.109 525.826, 385.764 508.005 C 388.823 503.327, 392.077 498.375, 392.994 497 C 395.490 493.261, 406.181 471.495, 409.448 463.500 C 411.022 459.650, 413.088 454.700, 414.040 452.500 C 420.140 438.405, 435.626 387.191, 434.196 385.845 C 432.836 384.566, 424.355 379.956, 414.264 375.011 C 388.330 362.303, 361.603 353.863, 335 349.981 C 326.345 348.718, 297.231 348.211, 285.500 349.119 M 274.500 366.094 C 245.246 371.184, 221.531 380.462, 198.500 395.828 C 189.174 402.051, 188.354 402.870, 186.327 408 C 178.889 426.830, 179.529 449.978, 188.004 468.670 C 198.657 492.165, 219.376 508.667, 244.799 513.908 C 254.272 515.860, 270.480 515.285, 280.007 512.658 C 308.206 504.882, 328.317 484.731, 336.552 456 C 339.383 446.125, 339.223 426.064, 336.231 415.701 C 330.610 396.233, 319.440 381.122, 302.492 370.058 C 294.823 365.052, 294.665 365.001, 287.122 365.112 C 282.930 365.173, 277.250 365.615, 274.500 366.094 M 259.651 384 C 259.328 384.825, 257.092 393.150, 254.680 402.500 L 250.296 419.500 238.638 419.708 C 225.030 419.950, 221.154 421.299, 217.290 427.138 C 211.944 435.216, 213.866 445.717, 221.657 451 C 225.007 453.271, 226.470 453.530, 237.647 453.831 L 249.951 454.162 250.802 457.331 C 251.270 459.074, 253.396 467.363, 255.526 475.751 C 257.656 484.139, 259.685 490.664, 260.035 490.251 C 260.777 489.375, 269.037 458.101, 269.015 456.250 C 269.004 455.336, 271.570 455, 278.557 455 C 283.814 455, 290.165 454.484, 292.671 453.853 C 304.973 450.755, 309.917 435.669, 301.698 426.309 C 297.060 421.026, 293.701 420, 281.051 420 L 270.038 420 269.359 417.250 C 264.884 399.127, 260.118 382.803, 259.651 384" stroke="none" fill="#1c1c1a" fill-rule="evenodd"/><path d="M 321 31.145 C 257.731 37.694, 198.294 61.975, 148.500 101.615 C 134.383 112.854, 108.854 138.383, 97.615 152.500 C 60.672 198.906, 38.337 250.381, 28.841 311 C 26.829 323.847, 26.570 329.148, 26.570 357.500 C 26.570 385.852, 26.829 391.153, 28.841 404 C 38.337 464.619, 60.672 516.094, 97.615 562.500 C 108.854 576.617, 134.383 602.146, 148.500 613.385 C 198.995 653.583, 258.064 677.495, 322.856 683.966 C 336.189 685.297, 370.811 685.297, 384.144 683.966 C 448.897 677.499, 508.036 653.559, 558.500 613.385 C 572.617 602.146, 598.146 576.617, 609.385 562.500 C 646.328 516.094, 668.663 464.619, 678.159 404 C 680.171 391.153, 680.430 385.852, 680.430 357.500 C 680.430 329.148, 680.171 323.847, 678.159 311 C 670.136 259.783, 653.848 217.265, 626.443 176 C 614.116 157.438, 602.442 143.314, 585.064 125.936 C 567.686 108.558, 553.562 96.884, 535 84.557 C 489.494 54.335, 439.364 36.549, 384.144 31.034 C 371.957 29.817, 333.175 29.885, 321 31.145 M 572.500 135.051 C 546.344 144.127, 487.223 162.206, 447 173.429 C 437.925 175.961, 429.150 178.445, 427.500 178.949 C 425.850 179.453, 418.425 181.503, 411 183.505 C 403.575 185.508, 393.601 188.235, 388.837 189.566 C 384.072 190.897, 363.313 196.264, 342.707 201.494 C 295.391 213.501, 282.713 217.387, 260.820 226.593 C 232.466 238.516, 199.380 257.307, 171.500 277.322 C 159.819 285.708, 143.938 297.938, 142 300.043 C 141.725 300.341, 138.800 302.751, 135.500 305.398 C 119.307 318.385, 83.511 353.710, 68 372.011 C 64.975 375.580, 61.958 379.074, 61.297 379.775 C 60.635 380.476, 58.385 383.176, 56.297 385.775 C 54.208 388.374, 52.253 390.725, 51.952 391 C 51.347 391.553, 38.244 408.615, 36.594 411 C 36.023 411.825, 38.694 409.574, 42.528 405.998 C 58.409 391.187, 83.140 371.935, 98.342 362.550 C 100.079 361.478, 105.469 357.990, 110.321 354.800 C 115.172 351.610, 119.366 349, 119.641 349 C 119.915 349, 122.102 347.650, 124.500 346 C 126.898 344.350, 129.097 343, 129.386 343 C 129.675 343, 132.294 341.584, 135.206 339.853 C 140.904 336.467, 146.890 333.114, 159.500 326.249 C 171.108 319.929, 219.280 296.288, 232 290.669 C 302.866 259.364, 331.776 249.433, 408.495 230.044 C 459.447 217.166, 527.892 201.531, 548.886 197.973 C 551.849 197.471, 554.388 196.934, 554.528 196.780 C 556.374 194.750, 588 132.193, 588 130.571 C 588 129.702, 587.510 129.843, 572.500 135.051 M 404.500 278.584 C 381.357 280.722, 360.479 285.081, 337.450 292.582 C 322.929 297.313, 318.826 298.877, 303.250 305.624 C 297.692 308.032, 278.578 317.390, 278 317.987 C 277.725 318.271, 276.150 319.177, 274.500 320 C 272.850 320.823, 271.275 321.723, 271 321.998 C 270.015 322.986, 264.467 326.134, 262.750 326.678 C 261.788 326.984, 261 327.631, 261 328.117 C 261 328.602, 260.535 329, 259.967 329 C 258.019 329, 223.117 353.190, 217.415 358.492 C 216.819 359.046, 213.908 361.525, 210.946 364 C 207.984 366.475, 202.847 371.140, 199.530 374.366 C 196.214 377.592, 189 383.306, 183.500 387.063 C 178 390.820, 169.675 396.920, 165 400.619 C 152.202 410.745, 122.745 440.859, 111.990 454.811 C 102.292 467.391, 90.024 485.120, 87.293 490.500 C 86.009 493.030, 86.344 492.839, 89.436 489.282 C 96.022 481.703, 111.234 468.039, 113.119 468.010 C 113.459 468.004, 113.169 470.444, 112.475 473.431 C 111.780 476.419, 110.901 481.706, 110.519 485.181 L 109.827 491.500 119.336 477.500 C 124.567 469.800, 132.783 458.550, 137.595 452.500 C 146.077 441.836, 175.962 411, 177.815 411 C 178.320 411, 178.027 413.813, 177.166 417.250 C 176.115 421.445, 175.614 427.939, 175.643 437 C 175.681 448.676, 176.047 451.688, 178.350 459.288 C 189.765 496.956, 221.577 521, 260 521 C 298.424 521, 330.325 496.883, 341.629 459.288 C 343.891 451.766, 344.284 448.556, 344.356 437 C 344.453 421.341, 342.979 414.244, 336.911 401.156 C 330.637 387.626, 321.588 376.490, 309 366.808 L 305.500 364.116 311 364.597 C 334.637 366.662, 353.018 370.578, 371.500 377.488 C 381.938 381.390, 403.366 391.856, 407.088 394.870 L 409.244 396.616 406.576 410.558 C 395.205 469.963, 374.555 512.215, 347.662 531.101 L 340.686 536 243.301 536 C 160.052 536, 144.847 535.779, 138.555 534.480 C 127.770 532.252, 120.002 529.337, 115.753 525.922 C 111.644 522.620, 111.298 522.749, 113.405 526.800 C 115.134 530.123, 118.734 533.548, 123.716 536.611 L 127.500 538.938 121 538.956 C 117.425 538.966, 110.225 538.086, 105 537 C 99.775 535.914, 95.275 535.022, 95 535.017 C 93.502 534.989, 102.367 539.603, 107.590 541.569 C 120.718 546.512, 128.034 547.288, 168 547.970 C 204.707 548.597, 206.007 548.689, 229.466 552.321 C 296.568 562.709, 346.632 565.306, 377 559.974 C 394.518 556.899, 409.697 553.164, 417.500 550.010 C 418.600 549.566, 421.075 548.627, 423 547.924 C 429.664 545.490, 448.042 537.095, 449 536.047 C 449.275 535.746, 451.525 534.411, 454 533.080 C 466.870 526.157, 485.582 511.379, 498 498.328 C 515.685 479.743, 525.465 465.647, 536.387 443 C 554.988 404.431, 562.096 362.839, 557.491 319.500 C 556.673 311.800, 556.003 305.372, 556.002 305.214 C 555.994 304.056, 530.442 294.697, 514.788 290.120 C 485.050 281.424, 467.336 278.860, 434.500 278.500 C 420.200 278.343, 406.700 278.381, 404.500 278.584" stroke="none" fill="#ffffff" fill-rule="evenodd"/></svg>