<svg width="20" height="19" viewBox="0 0 20 19" fill="none" xmlns="http://www.w3.org/2000/svg">
<path d="M18.3333 7.80556H11.6667V1.69445C11.6667 1.28926 11.4911 0.900662 11.1785 0.614148C10.866 0.327634 10.442 0.166672 10 0.166672C9.55797 0.166672 9.13405 0.327634 8.82149 0.614148C8.50893 0.900662 8.33333 1.28926 8.33333 1.69445V7.80556H1.66667C1.22464 7.80556 0.800716 7.96652 0.488156 8.25304C0.175595 8.53955 0 8.92815 0 9.33334C0 9.73853 0.175595 10.1271 0.488156 10.4136C0.800716 10.7002 1.22464 10.8611 1.66667 10.8611H8.33333V16.9722C8.33333 17.3774 8.50893 17.766 8.82149 18.0525C9.13405 18.339 9.55797 18.5 10 18.5C10.442 18.5 10.866 18.339 11.1785 18.0525C11.4911 17.766 11.6667 17.3774 11.6667 16.9722V10.8611H18.3333C18.7754 10.8611 19.1993 10.7002 19.5118 10.4136C19.8244 10.1271 20 9.73853 20 9.33334C20 8.92815 19.8244 8.53955 19.5118 8.25304C19.1993 7.96652 18.7754 7.80556 18.3333 7.80556Z" fill="#6B6B6B"/>
</svg>
